<svg width="494" height="162" viewBox="0 0 494 162" fill="none" xmlns="http://www.w3.org/2000/svg">
<g filter="url(#filter0_d_1_549)">
<path d="M446 41C450.418 41 454 44.5817 454 49V113C454 117.418 450.418 121 446 121H48C43.5817 121 40 117.418 40 113V49C40 44.5817 43.5817 41 48 41H121C134.807 41 147.159 56.2219 160.741 58.7057C161.798 58.899 162.887 59 164 59C165.113 59 166.202 58.899 167.259 58.7057C180.841 56.2219 193.193 41 207 41H446Z" fill="#8130B8"/>
<path d="M87 83H95V91H87V83Z" fill="#D6DBDE"/>
<path d="M96 83H104V91H96V83Z" fill="#D6DBDE"/>
<path d="M87 74H95V82H87V74Z" fill="#D6DBDE"/>
<path d="M96 74H104V82H96V74Z" fill="#D6DBDE"/>
<path d="M340.327 72.1896L337.5 76.3112L318.327 91.1896M329.5 71.8112V70.8112M325.329 78.4349L328.702 82.0798L333.329 85.4349M314 71.8112H346M335.768 90.8112H334.384L338.389 79.9021H339.753L343.759 90.8112H342.374L339.114 81.6279H339.028L335.768 90.8112ZM336.28 86.5498H341.862V87.7217H336.28V86.5498Z" stroke="#D6DBDE" stroke-width="2"/>
<circle cx="158.66" cy="81.389" r="7.5" fill="#D9D9D9"/>
<circle cx="169.66" cy="81.389" r="7.5" fill="#D9D9D9"/>
<rect x="157.16" y="73.889" width="14" height="9" fill="#D9D9D9"/>
<line x1="157.66" y1="77.889" x2="157.66" y2="84.889" stroke="#949494"/>
<line x1="154.16" y1="81.389" x2="161.16" y2="81.389" stroke="#949494"/>
<circle cx="173.16" cy="80.889" r="2" fill="#929292"/>
<circle cx="169.16" cy="83.889" r="1" fill="#929292"/>
<path d="M401.103 67.8171C401.47 67.0738 402.53 67.0738 402.897 67.8171L406.176 74.461C406.321 74.7562 406.603 74.9608 406.929 75.0081L414.261 76.0735C415.081 76.1927 415.408 77.2006 414.815 77.7792L409.509 82.9508C409.274 83.1805 409.166 83.5115 409.222 83.8359L410.474 91.1383C410.614 91.9552 409.757 92.5782 409.023 92.1925L402.465 88.7448C402.174 88.5916 401.826 88.5916 401.535 88.7448L394.977 92.1925C394.243 92.5782 393.386 91.9552 393.526 91.1383L394.778 83.8359C394.834 83.5115 394.726 83.1805 394.491 82.9508L389.185 77.7792C388.591 77.2006 388.919 76.1927 389.739 76.0735L397.071 75.0081C397.397 74.9608 397.679 74.7562 397.824 74.461L401.103 67.8171Z" fill="#D9D9D9"/>
<path fill-rule="evenodd" clip-rule="evenodd" d="M253.5 82.12C253.5 84.0014 252.169 85.3306 250.041 85.3306H243.948C241.822 85.3306 240.5 84.0014 240.5 82.12V75.5497C240.5 73.6692 241.822 72.3306 243.959 72.3306H247H250.041C252.169 72.3306 253.5 73.6692 253.5 75.5497V82.12Z" fill="#D6DBDE"/>
<path fill-rule="evenodd" clip-rule="evenodd" d="M248.102 84.414L251.526 88.7324C252.072 89.4176 251.573 90.4379 250.692 90.4246L243.545 90.3164C242.663 90.3031 242.197 89.2682 242.763 88.5998L246.316 84.387" fill="#D6DBDE"/>
<rect x="250.5" y="71.3306" width="5" height="10" rx="1" fill="#D6DBDE"/>
<rect x="238.5" y="71.3306" width="5" height="10" rx="1" fill="#D6DBDE"/>
<circle cx="164" cy="43" r="4" fill="#8130B8"/>
</g>
<defs>
<filter id="filter0_d_1_549" x="0" y="0" width="494" height="162" filterUnits="userSpaceOnUse" color-interpolation-filters="sRGB">
<feFlood flood-opacity="0" result="BackgroundImageFix"/>
<feColorMatrix in="SourceAlpha" type="matrix" values="0 0 0 0 0 0 0 0 0 0 0 0 0 0 0 0 0 0 127 0" result="hardAlpha"/>
<feOffset dy="1"/>
<feGaussianBlur stdDeviation="20"/>
<feComposite in2="hardAlpha" operator="out"/>
<feColorMatrix type="matrix" values="0 0 0 0 0 0 0 0 0 0 0 0 0 0 0 0 0 0 0.05 0"/>
<feBlend mode="normal" in2="BackgroundImageFix" result="effect1_dropShadow_1_549"/>
<feBlend mode="normal" in="SourceGraphic" in2="effect1_dropShadow_1_549" result="shape"/>
</filter>
</defs>
</svg>
