<svg width="494" height="164" viewBox="0 0 494 164" fill="none" xmlns="http://www.w3.org/2000/svg">
<g filter="url(#filter0_d_1_480)">
<path d="M446 43C450.418 43 454 46.5817 454 51V115C454 119.418 450.418 123 446 123H48C43.5817 123 40 119.418 40 115V51C40 46.5817 43.5817 43 48 43H94C107.807 43 120.159 58.2219 133.741 60.7057C134.798 60.899 135.887 61 137 61C138.113 61 139.202 60.899 140.259 60.7057C153.841 58.2219 166.193 43 180 43H446Z" fill="white"/>
<path d="M63.2222 83H71.2222V91H63.2222V83Z" fill="#D6DBDE"/>
<path d="M72.2222 83H80.2222V91H72.2222V83Z" fill="#D6DBDE"/>
<path d="M63.2222 74H71.2222V82H63.2222V74Z" fill="#D6DBDE"/>
<path d="M72.2222 74H80.2222V82H72.2222V74Z" fill="#D6DBDE"/>
<path d="M325 71H320.113L317.324 75.0654L317.236 75.1943L317.113 75.29L310.072 80.752L312.916 82.8145L311.742 84.4336L308.426 82.0293L297.939 90.168L297.327 89.3779L296.714 88.5889L306.797 80.7627L303.595 77.3027L304.329 76.624L305.063 75.9443L308.371 79.5186L308.386 79.5293L315.764 73.8037L317.687 71H293V69H325V71ZM319.691 77.7461L323.697 88.6553L324.191 90H320.667L320.431 89.335L319.57 86.9102H316.571L315.711 89.335L315.474 90H311.951L312.444 88.6553L316.45 77.7461L316.691 77.0908H319.451L319.691 77.7461ZM317.697 83.7383H318.444L318.07 82.6855L317.697 83.7383Z" fill="#D6DBDE"/>
<circle cx="130.5" cy="84.5" r="7.5" fill="#D9D9D9"/>
<circle cx="141.5" cy="84.5" r="7.5" fill="#D9D9D9"/>
<rect x="129" y="77" width="14" height="9" fill="#D9D9D9"/>
<line x1="129.5" y1="81" x2="129.5" y2="88" stroke="#949494"/>
<line x1="126" y1="84.5" x2="133" y2="84.5" stroke="#949494"/>
<circle cx="145" cy="84" r="2" fill="#929292"/>
<circle cx="141" cy="87" r="1" fill="#929292"/>
<path d="M390.103 69.8172C390.47 69.0739 391.53 69.0739 391.897 69.8172L395.175 76.4607C395.321 76.7557 395.603 76.9602 395.928 77.0076L403.26 78.073C404.08 78.1922 404.408 79.2006 403.815 79.7791L398.509 84.951C398.274 85.1807 398.167 85.5115 398.222 85.8357L399.474 93.1385C399.614 93.9553 398.756 94.5778 398.023 94.1922L391.465 90.7449C391.174 90.5918 390.826 90.5918 390.535 90.7449L383.977 94.1922C383.243 94.5778 382.386 93.9553 382.526 93.1385L383.778 85.8357C383.833 85.5114 383.726 85.1807 383.491 84.951L378.185 79.7791C377.592 79.2006 377.92 78.1922 378.74 78.073L386.072 77.0076C386.397 76.9602 386.679 76.7557 386.825 76.4607L390.103 69.8172Z" fill="#D6DBDE"/>
<path fill-rule="evenodd" clip-rule="evenodd" d="M231 83.7894C231 85.6708 229.669 87 227.541 87H221.448C219.322 87 218 85.6708 218 83.7894V77.2191C218 75.3386 219.322 74 221.459 74H224.5H227.541C229.669 74 231 75.3386 231 77.2191V83.7894Z" fill="#D6DBDE"/>
<path fill-rule="evenodd" clip-rule="evenodd" d="M225.602 86.0834L229.026 90.4019C229.572 91.087 229.073 92.1074 228.192 92.094L221.045 91.9859C220.163 91.9725 219.697 90.9376 220.263 90.2692L223.816 86.0564" fill="#D6DBDE"/>
<rect x="228" y="73" width="5" height="10" rx="1" fill="#D6DBDE"/>
<rect x="216" y="73" width="5" height="10" rx="1" fill="#D6DBDE"/>
<circle cx="137" cy="43" r="4" fill="white"/>
</g>
<defs>
<filter id="filter0_d_1_480" x="-23" y="0" width="517" height="164" filterUnits="userSpaceOnUse" color-interpolation-filters="sRGB">
<feFlood flood-opacity="0" result="BackgroundImageFix"/>
<feColorMatrix in="SourceAlpha" type="matrix" values="0 0 0 0 0 0 0 0 0 0 0 0 0 0 0 0 0 0 127 0" result="hardAlpha"/>
<feOffset dy="1"/>
<feGaussianBlur stdDeviation="20"/>
<feComposite in2="hardAlpha" operator="out"/>
<feColorMatrix type="matrix" values="0 0 0 0 0 0 0 0 0 0 0 0 0 0 0 0 0 0 0.05 0"/>
<feBlend mode="normal" in2="BackgroundImageFix" result="effect1_dropShadow_1_480"/>
<feBlend mode="normal" in="SourceGraphic" in2="effect1_dropShadow_1_480" result="shape"/>
</filter>
</defs>
</svg>
